<?xml version="1.0" encoding="utf-8"?>
<!-- Generator: Adobe Illustrator 18.0.0, SVG Export Plug-In . SVG Version: 6.00 Build 0)  -->
<!DOCTYPE svg PUBLIC "-//W3C//DTD SVG 1.1//EN" "http://www.w3.org/Graphics/SVG/1.1/DTD/svg11.dtd">
<svg version="1.1" id="1" xmlns="http://www.w3.org/2000/svg" xmlns:xlink="http://www.w3.org/1999/xlink" x="0px" y="0px"
	 width="400px" height="400px" viewBox="0 0 400 400" enable-background="new 0 0 400 400" xml:space="preserve">
<path fill="#FFFFFF" d="M200.3,76.8c-68.3,0-123.9,55.6-123.9,123.9c0,68.3,55.6,123.9,123.9,123.9c68.3,0,123.9-55.6,123.9-123.9
	C324.2,132.4,268.6,76.8,200.3,76.8z M209,161.7c13.5-0.5,26.9-2.1,39.9-4.9c3,10.8,5,22.7,5.6,35.2H209V161.7z M209,142.5v-39.7
	c13.3,4.1,25.1,17.3,33.4,35.8C231.5,140.8,220.3,142.1,209,142.5z M190,103.3v39.1c-10.8-0.5-21.4-1.8-31.8-3.9
	C166.1,120.8,177.4,107.9,190,103.3z M190,161.6V192h-44c0.6-12.5,2.6-24.4,5.6-35.2C164.2,159.4,177,161,190,161.6z M126.9,192
	H95.8c1.4-17.3,7.1-33.5,16-47.4c7,2.8,14.1,5.4,21.2,7.5C129.6,164.6,127.5,178.1,126.9,192z M127,211c0.7,13.4,2.8,26.3,6.1,38.3
	c-7.2,2.1-14.3,4.7-21.2,7.5c-8.6-13.5-14.2-29.1-15.8-45.8H127z M146.1,211H190v28.8c-13,0.6-25.8,2.1-38.4,4.8
	C148.7,234.2,146.8,222.9,146.1,211z M190,258.9v39.1c-12.6-4.6-23.9-17.5-31.8-35.3C168.6,260.7,179.2,259.4,190,258.9z M209,298.6
	v-39.7c11.3,0.4,22.5,1.8,33.4,3.9C234.1,281.3,222.3,294.5,209,298.6z M209,239.8V211h45.5c-0.7,11.9-2.6,23.2-5.5,33.6
	C235.9,241.9,222.5,240.2,209,239.8z M273.6,211h31c-1.6,16.7-7.2,32.3-15.8,45.8c-7-2.8-14.1-5.4-21.2-7.5
	C270.9,237.3,272.9,224.4,273.6,211z M273.7,192c-0.6-13.9-2.7-27.4-6.1-39.9c7.2-2.1,14.3-4.7,21.2-7.5c8.9,13.9,14.5,30.1,16,47.4
	H273.7z M276.5,128.8c-5,1.9-10.1,3.6-15.2,5.1c-2.2-5.3-4.7-10.4-7.5-15.1c-2.9-4.9-5.9-9.3-9.2-13.2
	C256.7,111.4,267.5,119.3,276.5,128.8z M156,105.7c-3.3,3.9-6.3,8.3-9.2,13.2c-2.8,4.7-5.3,9.8-7.5,15.1c-5.1-1.5-10.2-3.2-15.2-5.1
	C133.1,119.3,143.9,111.4,156,105.7z M124,272.6c5-1.9,10.1-3.6,15.2-5.1c2.2,5.3,4.7,10.4,7.5,15.1c2.9,4.9,5.9,9.3,9.2,13.2
	C143.9,290,133.1,282.1,124,272.6z M244.6,295.7c3.3-3.9,6.3-8.3,9.2-13.2c2.8-4.7,5.3-9.8,7.5-15.1c5.1,1.5,10.2,3.2,15.2,5.1
	C267.5,282.1,256.7,290,244.6,295.7z"/>
</svg>
